<svg id="Layer_1_copy" data-name="Layer 1 copy" xmlns="http://www.w3.org/2000/svg" viewBox="0 0 1024 448"><title>Miata-Overlay-Path</title><path d="M1,1V449H1025V1H1ZM897,262.5a58.22,58.22,0,0,1-8,6s4.26,39.94,3,45a22.13,22.13,0,0,1-5,8s-45.48,2.18-55,1c-0.12-2.21,0-17.57-2-36-0.17-.84,5.42-0.2,8-4-1.7-7.57-6.3-20.75-12-25-1.59-.49-7.18,1-8.29-0.69C807.27,241,789.41,228.11,759,226.5c-77.85,1.75-75,82-75,82s-0.1,17.69,0,20c-3.21.62-242.32-2.19-249-2s-80,0-80,0-1.13-37.8-5-47c-13.62-42.35-52.2-51.34-68-51s-24.26.28-42,10a51.51,51.51,0,0,0-20,19c-0.88,1.45-9.07,1.64-10,3-4.18,6.1-7.7,15.67-9,21,3.17,4.68,8.2,3.73,8,5-2,12.74-.22,30.21,0,33,0.24,3.06-36.59-5-43-5-11.86-4.11-30.6-18-33-21-0.79-3,1-8,1-8s-4.17-20.07-6-25-3.64-30.67-2-31c1.29-.26,13.67-15.28,18-22a8.78,8.78,0,0,1,3-1c0.31-.06-2,16.61,1,17,11.37-.05,26.54-1.39,28-1,2.19,0.59,12.48-6,12-7-1.31-2.79-20.06-10.58-36-10-1.5.05-1.17-4.83-3-6-2.66,1-3.89,6.16-4,6-1.39-2.07,0-6,0-6v-11l21-4a15.25,15.25,0,0,1-1-7c4.16-1.38,21.35,2.8,23,5,4.37-3.35,55-7,55-7l2-4,15,2s1.27,4.21,4,4c36.86-2.89,91.08,5.61,110,11s128.38,0.41,132,3c7.76,5.56,15.48,2.42,15,5-1,5.44,3.87,11,11,11,9.39,0,14.54-4.75,14-8-0.38-2.29-5-5-5-5l1-4s-33.82-.68-35-1-2.79-10.95-3-12c-0.35-1.7,3.63-10.38,13-10a34.73,34.73,0,0,1,27,15s-0.4,4.28-1,7c-0.68,3.07,81.43-4.38,88-4,29.74,1.74,76.55-.71,107,3a301.57,301.57,0,0,1,122.83,42.27l-3,1.89c-9.09-4.39-18.48-7.61-18.79-7.16,0,0-17.07,2.39-16,4,0.92,1.62,29.05,19.07,30,19s15.39-1.7,20-6c-2.79-3.12-8.82-6.69-14.67-9.58l2.82-2C883.37,244.64,896,256.5,896,256.5S898.06,259.45,897,262.5Z" transform="translate(-1 -1)" style="fill:none"/><path d="M861.15,231l-2.82,2c5.85,2.89,11.88,6.45,14.67,9.58-4.61,4.3-19.05,5.93-20,6s-29.08-17.38-30-19c-1.07-1.61,16-4,16-4,0.31-.46,9.7,2.76,18.79,7.16l3-1.89A301.57,301.57,0,0,0,738,188.5c-30.45-3.71-77.26-1.26-107-3-6.57-.38-88.68,7.07-88,4,0.6-2.72,1-7,1-7a34.73,34.73,0,0,0-27-15c-9.37-.38-13.35,8.3-13,10,0.21,1.05,1.82,11.68,3,12s35,1,35,1l-1,4s4.62,2.71,5,5c0.54,3.25-4.61,8-14,8-7.13,0-12-5.56-11-11,0.48-2.58-7.24.56-15-5-3.62-2.59-113.08,2.39-132-3s-73.14-13.89-110-11c-2.73.21-4-4-4-4l-15-2-2,4s-50.63,3.65-55,7c-1.65-2.2-18.84-6.38-23-5a15.25,15.25,0,0,0,1,7l-21,4v11s-1.39,3.93,0,6c0.11,0.16,1.34-5,4-6,1.83,1.17,1.5,6.05,3,6,15.94-.58,34.69,7.21,36,10,0.48,1-9.81,7.59-12,7-1.46-.39-16.63.95-28,1-3-.39-0.69-17.06-1-17a8.78,8.78,0,0,0-3,1c-4.33,6.72-16.71,21.74-18,22-1.64.33,0.17,26.07,2,31s6,25,6,25-1.79,5-1,8c2.4,3,21.14,16.89,33,21,6.41,0,43.24,8.06,43,5-0.22-2.79-2-20.26,0-33,0.2-1.27-4.83-.32-8-5,1.3-5.33,4.82-14.9,9-21,0.93-1.36,9.12-1.55,10-3a51.51,51.51,0,0,1,20-19c17.74-9.72,26.2-9.66,42-10s54.38,8.65,68,51c3.87,9.2,5,47,5,47s73.32,0.19,80,0,245.79,2.62,249,2c-0.1-2.31,0-20,0-20s-2.85-80.25,75-82c30.41,1.61,48.27,14.48,58.71,30.31,1.11,1.68,6.7.2,8.29,0.69,5.7,4.25,10.3,17.43,12,25-2.58,3.8-8.17,3.16-8,4,2,18.43,1.88,33.79,2,36,9.52,1.18,55-1,55-1a22.13,22.13,0,0,0,5-8c1.26-5.06-3-45-3-45a58.22,58.22,0,0,0,8-6c1.06-3.05-1-6-1-6S883.37,244.64,861.15,231Z" transform="translate(-1 -1)" style="fill:none"/></svg>