<svg id="Layer_1_copy" data-name="Layer 1 copy" xmlns="http://www.w3.org/2000/svg" viewBox="0 0 771.94 161.1"><title>Miata-Overlay-Path</title><path d="M895,255.5S882.37,243.64,860.15,230l-2.82,2c5.85,2.89,11.88,6.45,14.67,9.58-4.61,4.3-19.05,5.93-20,6s-29.08-17.38-30-19c-1.07-1.61,16-4,16-4,0.31-.46,9.7,2.76,18.79,7.16l3-1.89A301.57,301.57,0,0,0,737,187.5c-30.45-3.71-77.26-1.26-107-3-6.57-.38-88.68,7.07-88,4,0.6-2.72,1-7,1-7a34.73,34.73,0,0,0-27-15c-9.37-.38-13.35,8.3-13,10,0.21,1.05,1.82,11.68,3,12s35,1,35,1l-1,4s4.62,2.71,5,5c0.54,3.25-4.61,8-14,8-7.13,0-12-5.56-11-11,0.48-2.58-7.24.56-15-5-3.62-2.59-113.08,2.39-132-3s-73.14-13.89-110-11c-2.73.21-4-4-4-4l-15-2-2,4s-50.63,3.65-55,7c-1.65-2.2-18.84-6.38-23-5a15.25,15.25,0,0,0,1,7l-21,4v11s-1.39,3.93,0,6c0.11,0.16,1.34-5,4-6,1.83,1.17,1.5,6.05,3,6,15.94-.58,34.69,7.21,36,10,0.48,1-9.81,7.59-12,7-1.46-.39-16.63.95-28,1-3-.39-0.69-17.06-1-17a8.78,8.78,0,0,0-3,1c-4.33,6.72-16.71,21.74-18,22-1.64.33,0.17,26.07,2,31s6,25,6,25-1.79,5-1,8c2.4,3,21.14,16.89,33,21,6.41,0,43.24,8.06,43,5-0.22-2.79-2-20.26,0-33,0.2-1.27-4.83-.32-8-5,1.3-5.33,4.82-14.9,9-21,0.93-1.36,9.12-1.55,10-3a51.51,51.51,0,0,1,20-19c17.74-9.72,26.2-9.66,42-10s54.38,8.65,68,51c3.87,9.2,5,47,5,47s73.32,0.19,80,0,245.79,2.62,249,2c-0.1-2.31,0-20,0-20s-2.85-80.25,75-82c30.41,1.61,48.27,14.48,58.71,30.31,1.11,1.68,6.7.2,8.29,0.69,5.7,4.25,10.3,17.43,12,25-2.58,3.8-8.17,3.16-8,4,2,18.43,1.88,33.79,2,36,9.52,1.18,55-1,55-1a22.13,22.13,0,0,0,5-8c1.26-5.06-3-45-3-45a58.22,58.22,0,0,0,8-6C897.06,258.45,895,255.5,895,255.5Z" transform="translate(-124.36 -166.49)" style="fill:none"/></svg>